<?xml version="1.0" encoding="UTF-8"?>
<mxfile host="app.diagrams.net" agent="Mozilla/5.0 (Windows NT 10.0; Win64; x64) AppleWebKit/537.36 (KHTML, like Gecko) Chrome/138.0.0.0 Safari/537.36" version="28.0.9">
  <diagram name="หน้า-1" id="I8mxGPTTo9-2nCJKoSdU">
    <mxGraphModel dx="1452" dy="643" grid="1" gridSize="10" guides="1" tooltips="1" connect="1" arrows="1" fold="1" page="1" pageScale="1" pageWidth="827" pageHeight="1169" math="0" shadow="0">
      <root>
        <mxCell id="0" />
        <mxCell id="1" parent="0" />
        <mxCell id="lm_iCcwgTlMPpYDMRPSt-4" value="เริ่ม" style="ellipse;whiteSpace=wrap;html=1;" parent="1" vertex="1">
          <mxGeometry x="349.92" y="20" width="120" height="80" as="geometry" />
        </mxCell>
        <mxCell id="v3n18WOFil9SnZYVmVEK-8" style="edgeStyle=orthogonalEdgeStyle;rounded=0;orthogonalLoop=1;jettySize=auto;html=1;entryX=0.5;entryY=0;entryDx=0;entryDy=0;" parent="1" source="lm_iCcwgTlMPpYDMRPSt-5" target="v3n18WOFil9SnZYVmVEK-3" edge="1">
          <mxGeometry relative="1" as="geometry" />
        </mxCell>
        <mxCell id="lm_iCcwgTlMPpYDMRPSt-5" value="Do you want to play game (1=play,-1=exit)" style="shape=parallelogram;perimeter=parallelogramPerimeter;whiteSpace=wrap;html=1;fixedSize=1;" parent="1" vertex="1">
          <mxGeometry x="239.94" y="190" width="340" height="60" as="geometry" />
        </mxCell>
        <mxCell id="lm_iCcwgTlMPpYDMRPSt-10" style="edgeStyle=orthogonalEdgeStyle;rounded=0;orthogonalLoop=1;jettySize=auto;html=1;" parent="1" source="lm_iCcwgTlMPpYDMRPSt-7" target="lm_iCcwgTlMPpYDMRPSt-9" edge="1">
          <mxGeometry relative="1" as="geometry" />
        </mxCell>
        <mxCell id="lm_iCcwgTlMPpYDMRPSt-49" style="edgeStyle=orthogonalEdgeStyle;rounded=0;orthogonalLoop=1;jettySize=auto;html=1;entryX=0.5;entryY=0;entryDx=0;entryDy=0;" parent="1" source="lm_iCcwgTlMPpYDMRPSt-7" target="v3n18WOFil9SnZYVmVEK-15" edge="1">
          <mxGeometry relative="1" as="geometry">
            <mxPoint x="789.9999999999999" y="1960" as="targetPoint" />
            <Array as="points">
              <mxPoint x="810" y="560" />
              <mxPoint x="810" y="1720" />
              <mxPoint x="410" y="1720" />
              <mxPoint x="410" y="1750" />
            </Array>
          </mxGeometry>
        </mxCell>
        <mxCell id="lm_iCcwgTlMPpYDMRPSt-7" value="1=play || -1=exit" style="rhombus;whiteSpace=wrap;html=1;" parent="1" vertex="1">
          <mxGeometry x="259.99999999999994" y="520" width="300" height="80" as="geometry" />
        </mxCell>
        <mxCell id="lm_iCcwgTlMPpYDMRPSt-64" style="edgeStyle=orthogonalEdgeStyle;rounded=0;orthogonalLoop=1;jettySize=auto;html=1;entryX=0.5;entryY=0;entryDx=0;entryDy=0;" parent="1" source="lm_iCcwgTlMPpYDMRPSt-9" target="lm_iCcwgTlMPpYDMRPSt-63" edge="1">
          <mxGeometry relative="1" as="geometry" />
        </mxCell>
        <mxCell id="lm_iCcwgTlMPpYDMRPSt-9" value="Score=100" style="rounded=0;whiteSpace=wrap;html=1;" parent="1" vertex="1">
          <mxGeometry x="350" y="630" width="120" height="60" as="geometry" />
        </mxCell>
        <mxCell id="lm_iCcwgTlMPpYDMRPSt-15" style="edgeStyle=orthogonalEdgeStyle;rounded=0;orthogonalLoop=1;jettySize=auto;html=1;" parent="1" source="lm_iCcwgTlMPpYDMRPSt-11" target="lm_iCcwgTlMPpYDMRPSt-14" edge="1">
          <mxGeometry relative="1" as="geometry" />
        </mxCell>
        <mxCell id="lm_iCcwgTlMPpYDMRPSt-11" value="Guess the winning number (1-100) :" style="rounded=0;whiteSpace=wrap;html=1;" parent="1" vertex="1">
          <mxGeometry x="235" y="760" width="350" height="60" as="geometry" />
        </mxCell>
        <mxCell id="lm_iCcwgTlMPpYDMRPSt-19" style="edgeStyle=orthogonalEdgeStyle;rounded=0;orthogonalLoop=1;jettySize=auto;html=1;entryX=0.5;entryY=0;entryDx=0;entryDy=0;" parent="1" source="lm_iCcwgTlMPpYDMRPSt-13" target="lm_iCcwgTlMPpYDMRPSt-17" edge="1">
          <mxGeometry relative="1" as="geometry" />
        </mxCell>
        <mxCell id="lm_iCcwgTlMPpYDMRPSt-20" style="edgeStyle=orthogonalEdgeStyle;rounded=0;orthogonalLoop=1;jettySize=auto;html=1;entryX=0.5;entryY=0;entryDx=0;entryDy=0;" parent="1" source="lm_iCcwgTlMPpYDMRPSt-13" target="lm_iCcwgTlMPpYDMRPSt-18" edge="1">
          <mxGeometry relative="1" as="geometry" />
        </mxCell>
        <mxCell id="lm_iCcwgTlMPpYDMRPSt-13" value="ตรวจสอบตัวเลย" style="rhombus;whiteSpace=wrap;html=1;" parent="1" vertex="1">
          <mxGeometry x="314.90000000000003" y="940" width="190" height="80" as="geometry" />
        </mxCell>
        <mxCell id="lm_iCcwgTlMPpYDMRPSt-62" style="edgeStyle=orthogonalEdgeStyle;rounded=0;orthogonalLoop=1;jettySize=auto;html=1;entryX=0.5;entryY=0;entryDx=0;entryDy=0;" parent="1" source="lm_iCcwgTlMPpYDMRPSt-14" target="lm_iCcwgTlMPpYDMRPSt-13" edge="1">
          <mxGeometry relative="1" as="geometry" />
        </mxCell>
        <mxCell id="lm_iCcwgTlMPpYDMRPSt-14" value="Guess the winning number (1-100)" style="shape=parallelogram;perimeter=parallelogramPerimeter;whiteSpace=wrap;html=1;fixedSize=1;" parent="1" vertex="1">
          <mxGeometry x="285" y="860" width="250" height="60" as="geometry" />
        </mxCell>
        <mxCell id="lm_iCcwgTlMPpYDMRPSt-26" style="edgeStyle=orthogonalEdgeStyle;rounded=0;orthogonalLoop=1;jettySize=auto;html=1;" parent="1" source="lm_iCcwgTlMPpYDMRPSt-17" target="lm_iCcwgTlMPpYDMRPSt-25" edge="1">
          <mxGeometry relative="1" as="geometry" />
        </mxCell>
        <mxCell id="lm_iCcwgTlMPpYDMRPSt-46" value="F" style="edgeLabel;html=1;align=center;verticalAlign=middle;resizable=0;points=[];" parent="lm_iCcwgTlMPpYDMRPSt-26" vertex="1" connectable="0">
          <mxGeometry x="0.5107" relative="1" as="geometry">
            <mxPoint as="offset" />
          </mxGeometry>
        </mxCell>
        <mxCell id="lm_iCcwgTlMPpYDMRPSt-60" style="edgeStyle=orthogonalEdgeStyle;rounded=0;orthogonalLoop=1;jettySize=auto;html=1;entryX=1;entryY=0;entryDx=0;entryDy=0;" parent="1" source="lm_iCcwgTlMPpYDMRPSt-17" target="lm_iCcwgTlMPpYDMRPSt-32" edge="1">
          <mxGeometry relative="1" as="geometry" />
        </mxCell>
        <mxCell id="lm_iCcwgTlMPpYDMRPSt-17" value="ถ้าตัวเลข = 1-100" style="rhombus;whiteSpace=wrap;html=1;" parent="1" vertex="1">
          <mxGeometry x="534.8999999999999" y="1090" width="190" height="80" as="geometry" />
        </mxCell>
        <mxCell id="lm_iCcwgTlMPpYDMRPSt-24" style="edgeStyle=orthogonalEdgeStyle;rounded=0;orthogonalLoop=1;jettySize=auto;html=1;" parent="1" source="lm_iCcwgTlMPpYDMRPSt-18" target="lm_iCcwgTlMPpYDMRPSt-23" edge="1">
          <mxGeometry relative="1" as="geometry" />
        </mxCell>
        <mxCell id="lm_iCcwgTlMPpYDMRPSt-44" value="F" style="edgeLabel;html=1;align=center;verticalAlign=middle;resizable=0;points=[];" parent="lm_iCcwgTlMPpYDMRPSt-24" vertex="1" connectable="0">
          <mxGeometry x="0.6052" relative="1" as="geometry">
            <mxPoint as="offset" />
          </mxGeometry>
        </mxCell>
        <mxCell id="lm_iCcwgTlMPpYDMRPSt-61" style="edgeStyle=orthogonalEdgeStyle;rounded=0;orthogonalLoop=1;jettySize=auto;html=1;entryX=0;entryY=0;entryDx=0;entryDy=0;" parent="1" source="lm_iCcwgTlMPpYDMRPSt-18" target="lm_iCcwgTlMPpYDMRPSt-32" edge="1">
          <mxGeometry relative="1" as="geometry" />
        </mxCell>
        <mxCell id="lm_iCcwgTlMPpYDMRPSt-18" value="ถ้าตัวเลข = 1-100" style="rhombus;whiteSpace=wrap;html=1;" parent="1" vertex="1">
          <mxGeometry x="94.9" y="1090" width="190" height="80" as="geometry" />
        </mxCell>
        <mxCell id="lm_iCcwgTlMPpYDMRPSt-30" style="edgeStyle=orthogonalEdgeStyle;rounded=0;orthogonalLoop=1;jettySize=auto;html=1;entryX=0.5;entryY=0;entryDx=0;entryDy=0;" parent="1" source="lm_iCcwgTlMPpYDMRPSt-23" target="lm_iCcwgTlMPpYDMRPSt-27" edge="1">
          <mxGeometry relative="1" as="geometry" />
        </mxCell>
        <mxCell id="lm_iCcwgTlMPpYDMRPSt-23" value="Score&amp;nbsp; -10" style="rounded=0;whiteSpace=wrap;html=1;" parent="1" vertex="1">
          <mxGeometry x="129.89999999999998" y="1190" width="120" height="60" as="geometry" />
        </mxCell>
        <mxCell id="lm_iCcwgTlMPpYDMRPSt-29" style="edgeStyle=orthogonalEdgeStyle;rounded=0;orthogonalLoop=1;jettySize=auto;html=1;entryX=0.5;entryY=0;entryDx=0;entryDy=0;" parent="1" source="lm_iCcwgTlMPpYDMRPSt-25" target="lm_iCcwgTlMPpYDMRPSt-28" edge="1">
          <mxGeometry relative="1" as="geometry" />
        </mxCell>
        <mxCell id="lm_iCcwgTlMPpYDMRPSt-25" value="Score&amp;nbsp; -10" style="rounded=0;whiteSpace=wrap;html=1;" parent="1" vertex="1">
          <mxGeometry x="569.8999999999999" y="1190" width="120" height="60" as="geometry" />
        </mxCell>
        <mxCell id="lm_iCcwgTlMPpYDMRPSt-66" style="edgeStyle=orthogonalEdgeStyle;rounded=0;orthogonalLoop=1;jettySize=auto;html=1;entryX=0;entryY=0.5;entryDx=0;entryDy=0;" parent="1" source="lm_iCcwgTlMPpYDMRPSt-27" target="lm_iCcwgTlMPpYDMRPSt-63" edge="1">
          <mxGeometry relative="1" as="geometry">
            <Array as="points">
              <mxPoint x="40" y="1329" />
              <mxPoint x="40" y="720" />
            </Array>
          </mxGeometry>
        </mxCell>
        <mxCell id="lm_iCcwgTlMPpYDMRPSt-27" value="Sorry, the winning number is HIGHER than" style="shape=parallelogram;perimeter=parallelogramPerimeter;whiteSpace=wrap;html=1;fixedSize=1;" parent="1" vertex="1">
          <mxGeometry x="64.9" y="1299" width="250" height="60" as="geometry" />
        </mxCell>
        <mxCell id="lm_iCcwgTlMPpYDMRPSt-67" style="edgeStyle=orthogonalEdgeStyle;rounded=0;orthogonalLoop=1;jettySize=auto;html=1;entryX=1;entryY=0.5;entryDx=0;entryDy=0;" parent="1" source="lm_iCcwgTlMPpYDMRPSt-28" target="lm_iCcwgTlMPpYDMRPSt-63" edge="1">
          <mxGeometry relative="1" as="geometry">
            <Array as="points">
              <mxPoint x="779.9999999999999" y="1329" />
              <mxPoint x="779.9999999999999" y="720" />
            </Array>
          </mxGeometry>
        </mxCell>
        <mxCell id="lm_iCcwgTlMPpYDMRPSt-28" value="Sorry, the winning number is LOWER than" style="shape=parallelogram;perimeter=parallelogramPerimeter;whiteSpace=wrap;html=1;fixedSize=1;" parent="1" vertex="1">
          <mxGeometry x="504.90000000000003" y="1299" width="250" height="60" as="geometry" />
        </mxCell>
        <mxCell id="v3n18WOFil9SnZYVmVEK-1" style="edgeStyle=orthogonalEdgeStyle;rounded=0;orthogonalLoop=1;jettySize=auto;html=1;" parent="1" source="lm_iCcwgTlMPpYDMRPSt-32" target="lm_iCcwgTlMPpYDMRPSt-56" edge="1">
          <mxGeometry relative="1" as="geometry" />
        </mxCell>
        <mxCell id="lm_iCcwgTlMPpYDMRPSt-32" value="" style="ellipse;whiteSpace=wrap;html=1;aspect=fixed;" parent="1" vertex="1">
          <mxGeometry x="394.90000000000003" y="1359" width="30" height="30" as="geometry" />
        </mxCell>
        <mxCell id="lm_iCcwgTlMPpYDMRPSt-42" style="edgeStyle=orthogonalEdgeStyle;rounded=0;orthogonalLoop=1;jettySize=auto;html=1;" parent="1" source="lm_iCcwgTlMPpYDMRPSt-41" target="lm_iCcwgTlMPpYDMRPSt-7" edge="1">
          <mxGeometry relative="1" as="geometry" />
        </mxCell>
        <mxCell id="lm_iCcwgTlMPpYDMRPSt-41" value="" style="ellipse;whiteSpace=wrap;html=1;aspect=fixed;" parent="1" vertex="1">
          <mxGeometry x="389.92" y="440" width="40" height="40" as="geometry" />
        </mxCell>
        <mxCell id="lm_iCcwgTlMPpYDMRPSt-48" value="จบ" style="ellipse;whiteSpace=wrap;html=1;" parent="1" vertex="1">
          <mxGeometry x="350.94000000000005" y="1830" width="120" height="80" as="geometry" />
        </mxCell>
        <mxCell id="lm_iCcwgTlMPpYDMRPSt-73" style="edgeStyle=orthogonalEdgeStyle;rounded=0;orthogonalLoop=1;jettySize=auto;html=1;" parent="1" source="lm_iCcwgTlMPpYDMRPSt-56" target="lm_iCcwgTlMPpYDMRPSt-71" edge="1">
          <mxGeometry relative="1" as="geometry" />
        </mxCell>
        <mxCell id="lm_iCcwgTlMPpYDMRPSt-56" value="Score this game:&amp;nbsp;" style="shape=parallelogram;perimeter=parallelogramPerimeter;whiteSpace=wrap;html=1;fixedSize=1;" parent="1" vertex="1">
          <mxGeometry x="239.99999999999997" y="1420" width="340" height="60" as="geometry" />
        </mxCell>
        <mxCell id="lm_iCcwgTlMPpYDMRPSt-65" style="edgeStyle=orthogonalEdgeStyle;rounded=0;orthogonalLoop=1;jettySize=auto;html=1;entryX=0.5;entryY=0;entryDx=0;entryDy=0;" parent="1" source="lm_iCcwgTlMPpYDMRPSt-63" target="lm_iCcwgTlMPpYDMRPSt-11" edge="1">
          <mxGeometry relative="1" as="geometry" />
        </mxCell>
        <mxCell id="lm_iCcwgTlMPpYDMRPSt-63" value="" style="ellipse;whiteSpace=wrap;html=1;aspect=fixed;" parent="1" vertex="1">
          <mxGeometry x="400" y="710" width="20" height="20" as="geometry" />
        </mxCell>
        <mxCell id="lm_iCcwgTlMPpYDMRPSt-74" style="edgeStyle=orthogonalEdgeStyle;rounded=0;orthogonalLoop=1;jettySize=auto;html=1;" parent="1" source="lm_iCcwgTlMPpYDMRPSt-71" target="lm_iCcwgTlMPpYDMRPSt-72" edge="1">
          <mxGeometry relative="1" as="geometry" />
        </mxCell>
        <mxCell id="lm_iCcwgTlMPpYDMRPSt-71" value="That is correct! The winning number is (ตัวที่สุ่ม)" style="shape=parallelogram;perimeter=parallelogramPerimeter;whiteSpace=wrap;html=1;fixedSize=1;" parent="1" vertex="1">
          <mxGeometry x="239.99999999999997" y="1510" width="340" height="60" as="geometry" />
        </mxCell>
        <mxCell id="v3n18WOFil9SnZYVmVEK-2" style="edgeStyle=orthogonalEdgeStyle;rounded=0;orthogonalLoop=1;jettySize=auto;html=1;entryX=0;entryY=0.5;entryDx=0;entryDy=0;" parent="1" source="lm_iCcwgTlMPpYDMRPSt-72" target="lm_iCcwgTlMPpYDMRPSt-41" edge="1">
          <mxGeometry relative="1" as="geometry">
            <Array as="points">
              <mxPoint x="410" y="1700" />
              <mxPoint x="20" y="1700" />
              <mxPoint x="20" y="460" />
            </Array>
          </mxGeometry>
        </mxCell>
        <mxCell id="lm_iCcwgTlMPpYDMRPSt-72" value="Do you want to play game (1=play,-1=exit)" style="shape=parallelogram;perimeter=parallelogramPerimeter;whiteSpace=wrap;html=1;fixedSize=1;" parent="1" vertex="1">
          <mxGeometry x="239.99999999999997" y="1600" width="340" height="60" as="geometry" />
        </mxCell>
        <mxCell id="v3n18WOFil9SnZYVmVEK-9" style="edgeStyle=orthogonalEdgeStyle;rounded=0;orthogonalLoop=1;jettySize=auto;html=1;" parent="1" source="v3n18WOFil9SnZYVmVEK-3" target="v3n18WOFil9SnZYVmVEK-7" edge="1">
          <mxGeometry relative="1" as="geometry" />
        </mxCell>
        <mxCell id="v3n18WOFil9SnZYVmVEK-20" style="edgeStyle=orthogonalEdgeStyle;rounded=0;orthogonalLoop=1;jettySize=auto;html=1;" parent="1" source="v3n18WOFil9SnZYVmVEK-3" target="lm_iCcwgTlMPpYDMRPSt-41" edge="1">
          <mxGeometry relative="1" as="geometry" />
        </mxCell>
        <mxCell id="v3n18WOFil9SnZYVmVEK-3" value="ตรวจสอบว่าเป็นตัวหนังสือหรือตัวเลข" style="rhombus;whiteSpace=wrap;html=1;" parent="1" vertex="1">
          <mxGeometry x="259.94" y="270" width="300" height="80" as="geometry" />
        </mxCell>
        <mxCell id="v3n18WOFil9SnZYVmVEK-18" style="edgeStyle=orthogonalEdgeStyle;rounded=0;orthogonalLoop=1;jettySize=auto;html=1;entryX=0;entryY=0.5;entryDx=0;entryDy=0;" parent="1" source="v3n18WOFil9SnZYVmVEK-7" target="v3n18WOFil9SnZYVmVEK-11" edge="1">
          <mxGeometry relative="1" as="geometry">
            <Array as="points">
              <mxPoint x="140" y="155" />
            </Array>
          </mxGeometry>
        </mxCell>
        <mxCell id="v3n18WOFil9SnZYVmVEK-7" value="Please enter only 1 or -1." style="shape=parallelogram;perimeter=parallelogramPerimeter;whiteSpace=wrap;html=1;fixedSize=1;" parent="1" vertex="1">
          <mxGeometry x="39.88" y="280" width="195.16" height="60" as="geometry" />
        </mxCell>
        <mxCell id="v3n18WOFil9SnZYVmVEK-19" style="edgeStyle=orthogonalEdgeStyle;rounded=0;orthogonalLoop=1;jettySize=auto;html=1;entryX=0.5;entryY=0;entryDx=0;entryDy=0;" parent="1" source="v3n18WOFil9SnZYVmVEK-11" target="lm_iCcwgTlMPpYDMRPSt-5" edge="1">
          <mxGeometry relative="1" as="geometry" />
        </mxCell>
        <mxCell id="v3n18WOFil9SnZYVmVEK-11" value="" style="ellipse;whiteSpace=wrap;html=1;aspect=fixed;" parent="1" vertex="1">
          <mxGeometry x="393.94" y="140" width="30" height="30" as="geometry" />
        </mxCell>
        <mxCell id="v3n18WOFil9SnZYVmVEK-16" style="edgeStyle=orthogonalEdgeStyle;rounded=0;orthogonalLoop=1;jettySize=auto;html=1;" parent="1" source="v3n18WOFil9SnZYVmVEK-15" target="lm_iCcwgTlMPpYDMRPSt-48" edge="1">
          <mxGeometry relative="1" as="geometry" />
        </mxCell>
        <mxCell id="v3n18WOFil9SnZYVmVEK-15" value="See you again." style="shape=parallelogram;perimeter=parallelogramPerimeter;whiteSpace=wrap;html=1;fixedSize=1;" parent="1" vertex="1">
          <mxGeometry x="330.91" y="1750" width="160.06" height="60" as="geometry" />
        </mxCell>
        <mxCell id="v3n18WOFil9SnZYVmVEK-17" style="edgeStyle=orthogonalEdgeStyle;rounded=0;orthogonalLoop=1;jettySize=auto;html=1;entryX=0.532;entryY=0.084;entryDx=0;entryDy=0;entryPerimeter=0;" parent="1" source="lm_iCcwgTlMPpYDMRPSt-4" target="v3n18WOFil9SnZYVmVEK-11" edge="1">
          <mxGeometry relative="1" as="geometry" />
        </mxCell>
      </root>
    </mxGraphModel>
  </diagram>
</mxfile>
